<svg width="1em" height="1em" viewBox="0 0 20 20" fill="none" xmlns="http://www.w3.org/2000/svg">
<path fill-rule="evenodd" clip-rule="evenodd" d="M5.6659 0H14.3349C17.7385 0 19.9999 2.42931 19.9999 5.916V14.084C19.9999 17.567 17.7318 20 14.3349 20H5.6659C2.26212 20 -9.91821e-05 17.5705 -9.91821e-05 14.084V5.916C-9.91821e-05 2.4295 2.26212 0 5.6659 0ZM14.3349 1.5H5.6659C3.1154 1.5 1.4999 3.23496 1.4999 5.916V14.084C1.4999 16.765 3.1154 18.5 5.6659 18.5H14.3349C16.8789 18.5 18.4999 16.7612 18.4999 14.084V5.916C18.4999 3.23468 16.8851 1.5 14.3349 1.5ZM9.9999 5.164C10.3796 5.164 10.6934 5.44615 10.7431 5.81223L10.7499 5.914V12.2692L13.2164 9.7931C13.4821 9.52627 13.8988 9.50117 14.1928 9.7184L14.2771 9.79084C14.5439 10.0565 14.569 10.4732 14.3518 10.7672L14.2794 10.8515L10.5314 14.6155C10.2649 14.8831 9.84673 14.9075 9.55267 14.6885L9.54955 14.6858C9.52169 14.6648 9.49534 14.642 9.47069 14.6174L9.46844 14.6155L5.72044 10.8515C5.42817 10.558 5.42918 10.0831 5.7227 9.79084C5.98953 9.52514 6.40625 9.50182 6.6994 9.7203L6.78336 9.7931L9.2499 12.2706V5.914C9.2499 5.49979 9.58569 5.164 9.9999 5.164Z" fill="currentColor"/>
</svg>
