<svg width="1em" height="1em" viewBox="0 0 19 20" fill="none" xmlns="http://www.w3.org/2000/svg">
<path fill-rule="evenodd" clip-rule="evenodd" d="M5.63038 20C5.2176 20 4.82586 19.968 4.45717 19.905L4.23875 19.864C1.86327 19.371 0.482666 17.555 0.482666 14.791V5.209C0.482666 4.875 0.502704 4.555 0.542779 4.249C0.892439 1.564 2.74093 0 5.63038 0H13.37C16.572 0 18.4866 1.92 18.5167 5.132V5.209V14.791C18.5167 18.048 16.5971 20 13.37 20H5.63038ZM5.63038 1.457C3.16974 1.457 1.92238 2.72 1.92238 5.209V14.791C1.92238 17.28 3.16974 18.543 5.63038 18.543H13.361C15.8206 18.543 17.06 17.28 17.06 14.791V5.209C17.06 2.72 15.8206 1.457 13.361 1.457H5.63038ZM13.8138 14.234C13.8138 13.834 13.4942 13.51 13.0995 13.51H5.87484C5.4801 13.51 5.15949 13.834 5.15949 14.234C5.15949 14.634 5.4801 14.958 5.87484 14.958H13.0995C13.4942 14.958 13.8138 14.634 13.8138 14.234ZM13.0995 9.271C13.375 9.241 13.6445 9.373 13.7918 9.61C13.9391 9.849 13.9391 10.151 13.7918 10.39C13.6445 10.627 13.375 10.759 13.0995 10.729H5.87484C5.50815 10.687 5.23062 10.374 5.23062 10C5.23062 9.626 5.50815 9.312 5.87484 9.271H13.0995ZM9.27626 5.771C9.27626 5.397 8.99874 5.083 8.63205 5.042H5.88386C5.51617 5.083 5.23864 5.397 5.23864 5.771C5.23864 6.144 5.51617 6.458 5.88386 6.499H8.63205C8.99874 6.458 9.27626 6.144 9.27626 5.771Z" fill="currentColor"/>
</svg>
