<svg width="1em" height="1em" viewBox="0 0 19 20" fill="none" xmlns="http://www.w3.org/2000/svg">
<path fill-rule="evenodd" clip-rule="evenodd" d="M5.30207 0H13.6989C16.7938 0 18.517 1.78 18.517 4.83V15.16C18.517 18.26 16.7938 20 13.6989 20H5.30207C2.25633 20 0.482979 18.26 0.482979 15.16V4.83C0.482979 1.78 2.25633 0 5.30207 0ZM5.57258 4.66V4.65H8.56723C8.99905 4.65 9.34971 5 9.34971 5.429C9.34971 5.87 8.99905 6.22 8.56723 6.22H5.57258C5.14077 6.22 4.79111 5.87 4.79111 5.44C4.79111 5.01 5.14077 4.66 5.57258 4.66ZM5.57258 10.74H13.4274C13.8582 10.74 14.2089 10.39 14.2089 9.96C14.2089 9.53 13.8582 9.179 13.4274 9.179H5.57258C5.14077 9.179 4.79111 9.53 4.79111 9.96C4.79111 10.39 5.14077 10.74 5.57258 10.74ZM5.57258 15.31H13.4274C13.8272 15.27 14.1287 14.929 14.1287 14.53C14.1287 14.12 13.8272 13.78 13.4274 13.74H5.57258C5.27202 13.71 4.98147 13.85 4.82117 14.11C4.66086 14.36 4.66086 14.69 4.82117 14.95C4.98147 15.2 5.27202 15.35 5.57258 15.31Z" fill="currentColor"/>
</svg>
