<svg width="1em" height="1em" viewBox="0 0 21 20" fill="none" xmlns="http://www.w3.org/2000/svg">
<path fill-rule="evenodd" clip-rule="evenodd" d="M18.8551 5.65923C19.5264 6.17823 19.9382 6.94923 20.0083 7.78823L20.0183 7.98923V16.0982C20.0183 18.1882 18.3642 19.8882 16.2913 19.9982H14.2975C13.3447 19.9792 12.5743 19.2392 12.5042 18.3092L12.4941 18.1682V15.3092C12.4941 14.9982 12.2627 14.7392 11.9531 14.6882L11.8629 14.6782H9.1869C8.86729 14.6882 8.6068 14.9182 8.56673 15.2182L8.55671 15.3092V18.1592C8.55671 18.2182 8.54569 18.2882 8.53667 18.3382L8.52665 18.3592L8.51563 18.4282C8.39641 19.2792 7.69508 19.9282 6.82344 19.9892L6.69319 19.9982H4.89981C2.80586 19.9982 1.09263 18.3592 0.982422 16.2982V7.98923C0.991439 7.13823 1.36314 6.34823 1.98431 5.79823L8.22608 0.788233C9.49848 -0.220767 11.2818 -0.260767 12.5933 0.668233L12.7546 0.788233L18.8551 5.65923ZM18.6147 16.2582L18.6257 16.0982V7.99823C18.6147 7.56923 18.4353 7.16823 18.1248 6.86923L17.9945 6.75823L11.883 1.87823C11.1215 1.26823 10.0395 1.23923 9.23799 1.76823L9.08671 1.87823L2.99522 6.77923C2.64556 7.03823 2.43516 7.42823 2.38507 7.83823L2.37405 7.99823V16.0982C2.37405 17.4282 3.41601 18.5182 4.73951 18.5982H6.69319C6.91361 18.5982 7.10397 18.4492 7.13302 18.2392L7.15406 18.0592L7.16408 18.0082V15.3092C7.16408 14.2392 7.98563 13.3692 9.03761 13.2882H11.8629C12.934 13.2882 13.8056 14.1092 13.8868 15.1592V18.1682C13.8868 18.3782 14.037 18.5592 14.2374 18.5982H16.0999C17.4425 18.5982 18.5345 17.5692 18.6147 16.2582Z" fill="currentColor"/>
</svg>
