<svg width="21" height="20" viewBox="0 0 21 20" fill="none" xmlns="http://www.w3.org/2000/svg">
<path d="M7.62937 18.7733V15.7156C7.62937 14.9351 8.26797 14.3023 9.05572 14.3023H11.9353C12.3136 14.3023 12.6764 14.4512 12.9439 14.7163C13.2114 14.9813 13.3617 15.3408 13.3617 15.7156V18.7733C13.3593 19.0978 13.4877 19.4099 13.7184 19.6402C13.9492 19.8705 14.2632 20 14.5907 20H16.5553C17.4728 20.0023 18.3536 19.6428 19.0032 19.0008C19.6529 18.3588 20.018 17.487 20.018 16.5778V7.86686C20.0179 7.13246 19.6894 6.43584 19.1209 5.96467L12.4377 0.675869C11.2751 -0.251438 9.60944 -0.221498 8.48159 0.746979L1.9509 5.96467C1.3555 6.42195 0.999641 7.12064 0.982056 7.86686V16.5689C0.982056 18.4639 2.53236 20 4.44476 20H6.3645C7.04472 20 7.59753 19.4562 7.60246 18.7822L7.62937 18.7733Z" fill="currentColor"/>
</svg>
