<svg width="12" height="4" viewBox="0 0 12 4" fill="none" xmlns="http://www.w3.org/2000/svg">
<path fill-rule="evenodd" clip-rule="evenodd" d="M1.52075 3.19743C0.859754 3.19743 0.322754 2.66043 0.322754 2.00043C0.322754 1.34043 0.859754 0.802429 1.52075 0.802429C2.18175 0.802429 2.71875 1.34043 2.71875 2.00043C2.71875 2.66043 2.18175 3.19743 1.52075 3.19743ZM6.00015 3.19743C5.33915 3.19743 4.80215 2.66043 4.80215 2.00043C4.80215 1.34043 5.33915 0.802429 6.00015 0.802429C6.66115 0.802429 7.19815 1.34043 7.19815 2.00043C7.19815 2.66043 6.66115 3.19743 6.00015 3.19743ZM9.28115 2.00043C9.28115 2.66043 9.81815 3.19743 10.4792 3.19743C11.1402 3.19743 11.6772 2.66043 11.6772 2.00043C11.6772 1.34043 11.1402 0.802429 10.4792 0.802429C9.81815 0.802429 9.28115 1.34043 9.28115 2.00043Z" fill="currentColor"/>
</svg>
