<svg width="1em" height="1em" viewBox="0 0 18 20" fill="none" xmlns="http://www.w3.org/2000/svg">
<path fill-rule="evenodd" clip-rule="evenodd" d="M11.6067 0.0117C11.5636 0.00401204 11.5193 0 11.474 0C11.4287 0 11.3844 0.00401204 11.3413 0.0117H5.0837C2.5964 0.0117 0.499699 2.02953 0.499699 4.4907V15.2037C0.499699 17.8043 2.5043 19.8647 5.0837 19.8647H13.0727C15.526 19.8647 17.5517 17.7028 17.5517 15.2037V6.0377C17.5517 5.84408 17.4768 5.65797 17.3427 5.5183L12.2777 0.242299C12.1363 0.0949779 11.9409 0.0117 11.7367 0.0117H11.6067ZM10.724 1.5109L5.0837 1.5117C3.41223 1.5117 1.9997 2.8711 1.9997 4.4907V15.2037C1.9997 16.9849 3.34209 18.3647 5.0837 18.3647H13.0727C14.675 18.3647 16.0517 16.8954 16.0517 15.2037L16.051 6.98309L15.1755 6.98607C14.8419 6.98566 14.4624 6.98496 14.0404 6.984C12.2709 6.98026 10.8267 5.59329 10.7292 3.84739L10.724 3.659V1.5109ZM15.2302 5.48384L14.0437 5.484C13.0382 5.48188 12.224 4.66546 12.224 3.659V2.35245L15.2302 5.48384ZM11.284 12.8076C11.6982 12.8076 12.034 13.1434 12.034 13.5576C12.034 13.9373 11.7518 14.2511 11.3858 14.3008L11.284 14.3076H5.887C5.47278 14.3076 5.137 13.9718 5.137 13.5576C5.137 13.1779 5.41915 12.8641 5.78523 12.8144L5.887 12.8076H11.284ZM9.9925 8.6054C9.9925 8.19119 9.65671 7.8554 9.2425 7.8554H5.8865L5.78473 7.86225C5.41865 7.91191 5.1365 8.2257 5.1365 8.6054C5.1365 9.01961 5.47228 9.3554 5.8865 9.3554H9.2425L9.34427 9.34855C9.71035 9.29889 9.9925 8.9851 9.9925 8.6054Z" fill="#2E2E5D"/>
</svg>
