<svg width="17" height="17" viewBox="0 0 17 17" fill="none" xmlns="http://www.w3.org/2000/svg">
<path fill-rule="evenodd" clip-rule="evenodd" d="M8.50002 0.166748C3.89765 0.166748 0.166687 3.89772 0.166687 8.50008C0.166687 13.1024 3.89765 16.8334 8.50002 16.8334C13.1024 16.8334 16.8334 13.1024 16.8334 8.50008C16.8334 3.89772 13.1024 0.166748 8.50002 0.166748ZM8.49999 1.32955C12.4602 1.32955 15.6705 4.53992 15.6705 8.5001C15.6705 12.4603 12.4602 15.6706 8.49999 15.6706C4.53982 15.6706 1.32945 12.4603 1.32945 8.5001C1.32945 4.53992 4.53982 1.32955 8.49999 1.32955ZM7.55959 5.21222L7.47289 5.20397C7.30867 5.19834 7.13928 5.23956 6.98995 5.32012C6.79666 5.42359 6.64063 5.59127 6.55412 5.79889C6.51435 5.89499 6.44559 6.19167 6.41467 6.36397C6.33701 6.78743 6.29184 7.43865 6.28418 8.1533L6.28303 8.39364C6.28221 9.15189 6.32408 9.87363 6.40144 10.3492L6.44385 10.5676C6.48608 10.7619 6.54217 10.9689 6.58713 11.0562C6.75861 11.3875 7.10747 11.5921 7.47823 11.5803C7.63635 11.5768 7.96854 11.4664 8.19954 11.3694C9.03142 11.0195 10.4964 10.0387 11.1734 9.37741L11.3982 9.14345C11.4842 9.05152 11.5229 9.00875 11.5558 8.96399C11.6782 8.79761 11.742 8.59659 11.742 8.39304C11.742 8.1768 11.6707 7.96567 11.5348 7.79341L11.4684 7.71662L11.2821 7.51769C10.6429 6.83647 8.97043 5.7133 8.11609 5.38135C7.92817 5.30708 7.71627 5.23592 7.55959 5.21222ZM7.58837 6.42646L7.69184 6.46399C8.34722 6.71865 9.73788 7.64164 10.3312 8.20969L10.5078 8.39158L10.4409 8.46377C9.94611 8.99719 8.48516 9.98778 7.74905 10.2975L7.58915 10.3559L7.54876 10.1603C7.4908 9.80394 7.45393 9.23986 7.44699 8.62593L7.4458 8.39368C7.44511 7.72408 7.47931 7.09926 7.53822 6.69712L7.56652 6.53141L7.58837 6.42646Z" fill="currentColor"/>
</svg>
