<svg width="1em" height="1em" viewBox="0 0 21 20" fill="none" xmlns="http://www.w3.org/2000/svg">
<path fill-rule="evenodd" clip-rule="evenodd" d="M0.481079 8.66993C0.481079 3.88166 4.32868 0 9.07494 0C11.3542 0 13.5401 0.913436 15.1517 2.53936C16.7634 4.16529 17.6688 6.37052 17.6688 8.66993C17.6688 13.4582 13.8212 17.3399 9.07494 17.3399C4.32868 17.3399 0.481079 13.4582 0.481079 8.66993ZM17.5266 15.6543L20.0861 17.7164H20.1305C20.6484 18.2388 20.6484 19.0858 20.1305 19.6082C19.6127 20.1306 18.7732 20.1306 18.2553 19.6082L16.1313 17.1785C15.9305 16.9766 15.8176 16.7024 15.8176 16.4164C15.8176 16.1304 15.9305 15.8562 16.1313 15.6543C16.5186 15.2704 17.1393 15.2704 17.5266 15.6543Z" fill="currentColor"/>
</svg>
