<svg width="1em" height="1em" viewBox="0 0 21 20" fill="none" xmlns="http://www.w3.org/2000/svg">
<path fill-rule="evenodd" clip-rule="evenodd" d="M10.1108 0C4.79245 0 0.481079 4.20819 0.481079 9.39926C0.481079 14.5903 4.79245 18.7985 10.1108 18.7985C12.3854 18.7985 14.4759 18.0287 16.1236 16.7415L19.2536 19.7886L19.3368 19.8586C19.6274 20.0685 20.0394 20.0446 20.3024 19.7873C20.5916 19.5043 20.591 19.0459 20.301 18.7636L17.2078 15.7523C18.7806 14.0794 19.7405 11.8487 19.7405 9.39926C19.7405 4.20819 15.4291 0 10.1108 0ZM10.1108 1.44774C14.61 1.44774 18.2573 5.00776 18.2573 9.39926C18.2573 13.7908 14.61 17.3508 10.1108 17.3508C5.61162 17.3508 1.96431 13.7908 1.96431 9.39926C1.96431 5.00776 5.61162 1.44774 10.1108 1.44774Z" fill="currentColor"/>
</svg>
