<svg width="18" height="17" viewBox="0 0 18 17" fill="none" xmlns="http://www.w3.org/2000/svg">
<path d="M16.7365 5.89649L11.7775 5.17579L9.56067 0.681648C9.50013 0.558601 9.40052 0.458992 9.27747 0.398445C8.96888 0.246101 8.59388 0.373054 8.43958 0.681648L6.22278 5.17579L1.2638 5.89649C1.12708 5.91602 1.00208 5.98048 0.906378 6.07813C0.790678 6.19705 0.726923 6.35704 0.72912 6.52294C0.731317 6.68884 0.799288 6.84708 0.918097 6.9629L4.50599 10.4609L3.65833 15.4004C3.63845 15.5153 3.65117 15.6335 3.69503 15.7415C3.7389 15.8496 3.81216 15.9432 3.90651 16.0117C4.00086 16.0802 4.11252 16.1209 4.22884 16.1292C4.34515 16.1375 4.46146 16.113 4.56458 16.0586L9.00013 13.7266L13.4357 16.0586C13.5568 16.1231 13.6974 16.1445 13.8322 16.1211C14.172 16.0625 14.4005 15.7402 14.3419 15.4004L13.4943 10.4609L17.0822 6.9629C17.1798 6.86719 17.2443 6.74219 17.2638 6.60548C17.3165 6.26368 17.0783 5.94727 16.7365 5.89649Z" fill="currentColor"/>
</svg>
