<svg width="161" height="160" viewBox="0 0 161 160" fill="none" xmlns="http://www.w3.org/2000/svg">
<path fill-rule="evenodd" clip-rule="evenodd" d="M67.7 99.1999C85.3731 99.1999 99.7 84.8731 99.7 67.1999C99.7 49.5268 85.3731 35.2 67.7 35.2C50.0269 35.2 35.7 49.5268 35.7 67.1999C35.7 84.8731 50.0269 99.1999 67.7 99.1999ZM67.7 115.2C94.2097 115.2 115.7 93.7096 115.7 67.1999C115.7 40.6903 94.2097 19.2 67.7 19.2C41.1903 19.2 19.7 40.6903 19.7 67.1999C19.7 93.7096 41.1903 115.2 67.7 115.2Z" fill="#4838D1"/>
<path d="M138.1 121.6C138.1 130.437 130.937 137.6 122.1 137.6C113.263 137.6 106.1 130.437 106.1 121.6C106.1 112.763 113.263 105.6 122.1 105.6C130.937 105.6 138.1 112.763 138.1 121.6Z" fill="#F77A55"/>
</svg>

